<svg width="13" height="13" viewBox="0 0 13 13" fill="none" xmlns="http://www.w3.org/2000/svg">
<path d="M6.39506 0C4.6596 0 4.44137 0.00799382 3.7595 0.0383704C3.07762 0.0703456 2.61318 0.177463 2.2063 0.335741C1.7795 0.496272 1.39292 0.748083 1.07357 1.07357C0.748283 1.39308 0.496502 1.77962 0.335741 2.2063C0.177463 2.61238 0.0695463 3.07762 0.0383704 3.7571C0.00799382 4.44057 0 4.658 0 6.39586C0 8.13212 0.00799382 8.34955 0.0383704 9.03142C0.0703456 9.71249 0.177463 10.1769 0.335741 10.5838C0.499614 11.0043 0.717845 11.3608 1.07357 11.7165C1.4285 12.0723 1.78502 12.2913 2.2055 12.4544C2.61318 12.6127 3.07682 12.7206 3.7579 12.7517C4.44057 12.7821 4.658 12.7901 6.39506 12.7901C8.13212 12.7901 8.34875 12.7821 9.03142 12.7517C9.7117 12.7198 10.1777 12.6127 10.5846 12.4544C11.0111 12.2938 11.3974 12.042 11.7165 11.7165C12.0723 11.3608 12.2905 11.0043 12.4544 10.5838C12.6119 10.1769 12.7198 9.71249 12.7517 9.03142C12.7821 8.34955 12.7901 8.13212 12.7901 6.39506C12.7901 4.658 12.7821 4.44057 12.7517 3.7579C12.7198 3.07762 12.6119 2.61238 12.4544 2.2063C12.2936 1.77961 12.0419 1.39306 11.7165 1.07357C11.3973 0.747963 11.0107 0.496133 10.5838 0.335741C10.1761 0.177463 9.7109 0.0695463 9.03062 0.0383704C8.34795 0.00799382 8.13132 0 6.39346 0H6.39586H6.39506ZM5.8219 1.15271H6.39586C8.10334 1.15271 8.30558 1.1583 8.97946 1.18948C9.60298 1.21746 9.94192 1.32218 10.1673 1.40931C10.4655 1.52522 10.6789 1.66431 10.9028 1.88814C11.1266 2.11197 11.2649 2.3246 11.3808 2.62357C11.4687 2.8482 11.5727 3.18714 11.6006 3.81066C11.6318 4.48453 11.6382 4.68678 11.6382 6.39346C11.6382 8.10014 11.6318 8.30318 11.6006 8.97706C11.5727 9.60058 11.4679 9.93872 11.3808 10.1641C11.2783 10.4418 11.1146 10.6929 10.902 10.8988C10.6781 11.1226 10.4655 11.2609 10.1665 11.3768C9.94272 11.4647 9.60378 11.5687 8.97946 11.5974C8.30558 11.6278 8.10334 11.635 6.39586 11.635C4.68838 11.635 4.48533 11.6278 3.81146 11.5974C3.18794 11.5687 2.8498 11.4647 2.62437 11.3768C2.34659 11.2744 2.09528 11.1111 1.88894 10.8988C1.67611 10.6926 1.51221 10.4413 1.40931 10.1633C1.32218 9.93872 1.21746 9.59978 1.18948 8.97626C1.1591 8.30238 1.15271 8.10014 1.15271 6.39186C1.15271 4.68438 1.1591 4.48294 1.18948 3.80906C1.21826 3.18554 1.32218 2.8466 1.41011 2.62117C1.52602 2.323 1.66511 2.10957 1.88894 1.88574C2.11277 1.66192 2.3254 1.52362 2.62437 1.40771C2.8498 1.31978 3.18794 1.21586 3.81146 1.18708C4.4014 1.1599 4.63002 1.15191 5.8219 1.15111V1.15271ZM9.80922 2.21429C9.70844 2.21429 9.60865 2.23414 9.51555 2.2727C9.42244 2.31127 9.33784 2.3678 9.26658 2.43906C9.19532 2.51032 9.13879 2.59492 9.10023 2.68802C9.06166 2.78113 9.04181 2.88092 9.04181 2.9817C9.04181 3.08247 9.06166 3.18226 9.10023 3.27537C9.13879 3.36848 9.19532 3.45307 9.26658 3.52433C9.33784 3.5956 9.42244 3.65212 9.51555 3.69069C9.60865 3.72925 9.70844 3.7491 9.80922 3.7491C10.0127 3.7491 10.2079 3.66825 10.3519 3.52433C10.4958 3.38042 10.5766 3.18523 10.5766 2.9817C10.5766 2.77817 10.4958 2.58297 10.3519 2.43906C10.2079 2.29514 10.0127 2.21429 9.80922 2.21429ZM6.39586 3.1112C5.96025 3.1044 5.52764 3.18433 5.12322 3.34633C4.7188 3.50833 4.35065 3.74916 4.0402 4.05481C3.72975 4.36045 3.4832 4.7248 3.31491 5.12665C3.14662 5.52849 3.05996 5.9598 3.05996 6.39546C3.05996 6.83112 3.14662 7.26243 3.31491 7.66427C3.4832 8.06611 3.72975 8.43046 4.0402 8.73611C4.35065 9.04176 4.7188 9.28259 5.12322 9.44459C5.52764 9.60659 5.96025 9.68652 6.39586 9.67972C7.25802 9.66627 8.08033 9.31433 8.68527 8.69988C9.29021 8.08542 9.62928 7.25773 9.62928 6.39546C9.62928 5.53319 9.29021 4.70549 8.68527 4.09104C8.08033 3.47658 7.25802 3.12465 6.39586 3.1112ZM6.39586 4.26311C6.96129 4.26311 7.50356 4.48772 7.90338 4.88754C8.30319 5.28736 8.52781 5.82963 8.52781 6.39506C8.52781 6.96049 8.30319 7.50276 7.90338 7.90258C7.50356 8.30239 6.96129 8.52701 6.39586 8.52701C5.83043 8.52701 5.28816 8.30239 4.88834 7.90258C4.48852 7.50276 4.26391 6.96049 4.26391 6.39506C4.26391 5.82963 4.48852 5.28736 4.88834 4.88754C5.28816 4.48772 5.83043 4.26311 6.39586 4.26311Z" fill="black"/>
</svg>
